<svg version="1" xmlns="http://www.w3.org/2000/svg" width="768" height="768" viewBox="0 0 576.000000 576.000000"><path d="M461 34.6c-7.2 1.7-12.2 3.8-18.8 8-8 5.2-272.2 269.6-272.3 272.6-.1 1.3-.2 3.4-.4 4.8-.1 1.4-.6 5.4-.9 9-.4 3.5-.9 7.8-1.1 9.5-.7 4.9-1.4 11.6-2 18-.3 3.3-.8 7.3-1 9-.4 3.1-1.4 12.5-2 18.5-.2 1.9-.7 6.2-1.2 9.5-.9 6.9-1 19.6-.1 24 1.7 9 10.9 21.1 19.9 25.9 9.4 5.2 18.6 6.3 35.4 4.2 2.2-.3 6.5-.8 9.5-1.1 6.6-.7 13.2-1.5 18-2.1 1.9-.3 6-.7 9-1 8.6-.7 13.2-1.2 17-1.8 3.4-.6 7.6-1 20.3-2.2l5.8-.5 133.2-133.3c124.2-124.2 137-137.5 141.5-146.6 5.3-10.8 6.4-30.9 2.3-42.3-4.4-12.5-6.7-15.3-35-43.9-20.8-21-29-28.5-33.9-31.5-3.7-2.1-6.9-3.8-7.2-3.9-.3 0-1.2-.4-2-.7-8.1-3.5-24.1-4.5-34-2.1zm32.9 61.6c22.3 21.8 33.5 34 33.8 36.8.2 1.4.1 3.6-.2 4.8-.3 1.3-7.9 9.8-16.9 18.9l-16.4 16.4-29.1-29-29.1-29 15.3-15.4c18.4-18.5 19-19 24.1-18.3 3.4.4 5.7 2.2 18.5 14.8zM431.1 178l29.1 29-93.2 93c-51.2 51.2-93.7 93-94.3 93.1-7.3.5-21.9 2.1-24.2 2.6-1.1.2-4.7.6-8 .9-3.3.3-7.6.7-9.5.9-5 .7-10.7 1.3-16.9 1.9l-5.3.6.7-5.8c.3-3.1.8-6.8 1-8.2.2-1.4.6-5.2 1-8.5.9-9.7 1.5-14.8 2-18.5.9-6.6 2.1-17.9 2.4-22.8.1-1 184.8-187 185.9-187.1.2-.1 13.4 13 29.3 28.9z"/><path d="M36.5 98.5c-9.9 2.7-19.1 8.2-23.8 14.2-1 1.3-2.4 2.9-3.1 3.6-2.4 2.4-7 12.1-8.5 18.2-1.5 5.7-1.5 363.9 0 372 3.1 17.1 15.5 30.5 33.8 36.6 5.4 1.8 12.4 1.8 188.4 1.9 165.5 0 183.4-.1 188.5-1.6 13.8-3.9 24.9-12.7 30.8-24.4 2.2-4.4 5.6-15.8 5.3-17.7-.1-.4-.1-1 0-1.3.6-1.5.5-9-.1-9-.4 0-.3-1.4.2-3 .5-1.7.5-3 0-3s-.5-1.3 0-3 .5-3 0-3-.5-1.3 0-3 .5-3 0-3-.5-1.3 0-3 .5-3 0-3-.5-1.3 0-3 .6-3 .2-3c-.8 0-.7-6.8.1-7.6.3-.3.2-1.6-.3-2.8-.4-1.3-.4-2.9 0-3.6.5-.8.5-2.1 0-3-.5-.9-.5-2.2 0-3 .5-.8.5-2.1 0-3-.5-.9-.5-2.2 0-3 .5-.8.5-2.1 0-3-.5-.9-.5-2.2 0-3 .5-.8.5-2.1 0-3-.5-.9-.5-2.2 0-3 .5-.8.5-2.1 0-3-.5-.9-.5-2.2 0-3 .5-.8.5-2.1 0-3-.5-.9-.5-2.2 0-3 .5-.8.5-2.1 0-3-.5-.9-.5-2.2 0-3 .5-.8.5-2.1 0-3-.5-.9-.5-2.2 0-3 .5-.8.5-2.1 0-3-.5-.9-.5-2.2 0-3 .5-.8.5-2.1 0-3.1-.5-.9-.7-1.8-.5-2.1.8-.7 1-12.8.3-12.8-.4 0-.3-1.4.2-3 .5-1.7.5-3 0-3s-.5-1.3 0-3 .5-3 0-3-.5-1.3 0-3 .6-3 .2-3c-.4 0-.6-1.9-.5-4.2.1-3.3-.4-4.7-2.6-6.8-2.6-2.6-4.8-3-8.4-1.5-1 .4-9.4 8.4-18.7 17.7-17.7 17.8-19.3 20.1-17.9 26.6.3 1.8.3 3.5-.1 3.7-.5.3-.5 1.9 0 3.5s.5 3.2 0 3.5c-.4.3-.4 2.1 0 4s.4 3.7 0 4c-.4.3-.5 2-.1 3.7.4 1.8.6 4.2.5 5.3-.1 1.1-.3 3.2-.3 4.8-.1 1.5-.1 3.9-.2 5.5 0 1.5-.1 3.6-.3 4.7-.1 1.1.1 3.7.5 5.7.3 2.1.4 3.8 0 3.8-.3 0-.5 3.3-.4 7.2.1 4 .2 10.2.2 13.8 0 3.6.1 7.4.1 8.5 0 2.7-.1 6.6-.4 9-.1 1.1.1 3.5.5 5.3.4 1.7.3 3.4-.1 3.7-.5.3-.5 1.8-.1 3.3.4 1.5.6 3.3.4 4-.4.9-36.6 1.2-176.5 1.2-96.9 0-175.9-.2-175.6-.6.3-.3.2-2.1-.2-4s-.4-3.6 0-3.9c.4-.2.4-2.3 0-4.5s-.4-5.8 0-8c.4-2.3.3-4-.2-4s-.6-.4-.3-1c.3-.5.6-4.7.5-9.2 0-14.2.1-19.2.6-20 .3-.4.2-.8-.3-.8-.8 0-.7-13.5.1-15.7.3-.7.1-1.3-.5-1.3s-.7-.5-.4-1c.9-1.4.9-20.6 0-22-.3-.5-.3-1 .2-1 .8 0 .7-12.5-.2-14.7-.2-.7-.1-1.3.3-1.3s.6-4.2.5-9.2c-.2-5.1-.3-12.2-.2-15.8 0-5.8-.2-27.9-.2-30.5-.1-.6 0-5.8.1-11.7.1-5.9-.1-11.2-.5-11.7-.3-.6-.3-1.1.2-1.1.8 0 .7-12.5-.1-14.6-.2-.6-.1-2.9.4-5.2.4-2.5.3-4.2-.2-4.2s-.6-.4-.3-1c.3-.5.6-4.7.5-9.2 0-14.2.1-19.2.6-20 .3-.4.2-.8-.3-.8-.8 0-.7-13.5.1-15.7.3-.7.1-1.3-.5-1.3s-.7-.5-.4-1c.9-1.4.9-20.6 0-22-.3-.5-.3-1 .2-1 .8 0 .7-12.5-.2-14.7-.2-.7-.1-1.3.3-1.3.6 0 .7-9 .2-21-.1-1.9-.1-6.7 0-10.5.1-3.9.1-7.5 0-8-.2-.6-.2-2.5-.1-4.2l.1-3.3h120.8c66.4 0 121.7-.2 122.8-.4 3.1-.6 37.4-35.2 37.5-37.9.2-4-.2-5.2-2.7-7.5l-2.5-2.2-141.2.1c-116 0-142.1.3-146.2 1.4z"/></svg>